<?xml version="1.0" encoding="UTF-8"?>
<svg width="465pt" height="438pt" version="1.1" viewBox="0 0 465 438" xmlns="http://www.w3.org/2000/svg">
 <path d="m342.87 0h0.86c1.13 0.79 2.24 1.61 3.3 2.5-10.02 37.75-23.81 73.48-34.6 111.7 9.47-2.59 14-13.9 23.47-17.28 11.9-7.23 27.62 2.79 38.76-6.25 6.08-7.18 12.98-13.59 19.38-20.46 7.53-9.29 22.92-2.9 29.76 2.65-23.54 11.9-16.33 49.5-44.91 57.23-11.48-0.92-42.23 0.26-37.27 18.7 22-1.21 43.93-5.54 66.01-7.06 12.41-1.57 28.42-10.68 38.53 0.39-26.09 14.58-55.62 24.06-81.93 38.29 3.27 4.39 12.98 0.36 18.57 3.7 15.91 2.78 20.37 26.02 37.61 24.24 17.48-5.69 37.25-0.97 44.59 17.1v0.91c-13.13 1.49-29.6-5.14-38.15 8.63-22.26 12.59-47.76-20.52-68.61-5.21 24.3 16.44 44.79 38.7 67.94 57.12 2.95 1.24 2.51 8.35-2.55 4.53-23.74-6.26-47.91-11.97-70.05-22.93-5.54-1.18 0.77 5.83 2.03 6.86 9.68 9.7 9.6 24.19 9.67 36.98 4.71 10.39 17.63 12.6 25.86 19.48 12.37 10.38 9.82 28.4 9.43 42.68-8.82-0.25-10.8-15.95-20.79-17.4-16.98-1.15-33.7-11.02-42.03-25.94-2.2-16.45-13.36-41.55-32.34-38.35-0.2 25.59 5.98 51.07 4.23 76.9-3 21.59 6.15 43.08 1.8 64.6-0.29 1.98-2.23 3.26-4.13 2.45-14.08-39.58-25.74-81.33-41.59-120.84 0.37 18.45-16.23 30.77-26.76 45.15-7.66 14.63 4.13 31.69-3.2 46.68-4.56 10.81-8.43 23.57-18.87 30.25h-1.71c-10.59-9.75 2.7-26.31-2.54-38.61-6.6-20.46-15.83-43.09-2.38-63.11 2.62-5.58 11.54-18.01 5.03-22.18-19.53 35.24-45.07 66.7-71.69 96.72-4.75 1.13-5.59-5.56-3.61-8.61 16.79-37.51 27.88-77.4 46.01-114.3-12.19-1.9-25.53 3.73-30.63 15.48-5.32 15.43-21.7 22.17-36.62 24.14-10.82 9.92-24.03 19.53-39.19 20.11 1.41-9.56 15.37-14.89 14.34-26.74 3.11-18.89 29.01-15.53 34.94-32.1 2.29-6.61 7.75-11.66 9.55-18.42-27.83 7.78-53.05 26.81-82.81 29.19-2.56 0.37-6.21 0.73-6.63-2.71 2.3-10.99 16.03-10.9 22.34-18.58 20.03-17.34 48.04-26.12 64.49-46.49-19.78 0.29-33.43 20.4-54.13 15.54-18.29-4.87-35.88 7.83-54.22 2.49-8.69-3.64-18.26-2.54-27.43-3.53v-1.88c11.38-4.59 22.64-9.4 33.03-16.29 15.4-11.64 37.88-0.59 51.95-15.17 11.81-12.67 28.81-18.17 44.96-15.88-32.51-14.13-69.56-28.48-104.38-40.71 0.31-7.85 15.37-6.08 21.57-5.75 34.87-2.93 69.46 5.61 104.04 5.66-6.29-13.07-21.35-17.2-33.43-23.01-15.32-4.82-20.98-22.34-23.26-36.61-4.5-15.17-22.38-19.88-30.18-30.67 23.57-7.27 48.17 8.9 60.54 29.14 17.21 12.14 44.13 12.19 53.21 34.91 0.48 4.54 4.07 0.81 5.77-1.18-15.18-34.7-18.56-73.23-32.82-108.15-3.66-7.16 5.78-6.37 5.04-1.1 15.34 28.06 43.81 45.87 60.1 73.43 6.12-1.72-2.21-11.28 1.37-15.42-0.23-19.62 17.31-32 22.94-49.17 5.9-11.41-10.02-14.07-14.47-21.52 9.41 4.43 19.74 5.67 29.71 8.23 6.23 12.91 7.24 28.82-0.12 41.49-9.47 19.13 9.57 34.49 16.01 50.69 23.85-35.68 48.41-71.01 71.29-107.33m-1.47 9.42c-23.12 31.63-42.2 66.45-64.42 98.57 6.8 6.65 19.08 9.85 27.78 14.78 13.37-36.94 26.36-77.71 36.64-113.35m-95.05 8.83c-0.93 12.67-8.06 28.17-18.93 38.16-7.55 17.16-9.58 38.03 0.3 53.75 11.83-1.23 26.84-5.94 39.81-2.56-6.44-8.45-13.4-21.24-17.74-32.45-4.37-15.09 11.56-26.63 7.16-41.85 1.12-6.89-2.41-16.13-10.6-15.05m-88.31 12.08c5.1 20.02 14.08 44.27 18.11 66.51 6.5 8.8 5.97 38.01 20.93 25.17 6.19-7.53 30.16-2.73 22.16-17.08-17.61-26.61-40.82-51.18-61.2-74.6m-87.78 36.33c11.97 9.81 31.28 20.16 31.23 39.79 5.63 29.68 45.81 25.45 57.88 50.33 9.39-1.6 8.03-15.51 15.6-20.04-5.34-12.64-16.15-25.86-30.91-27.82-14.55-0.9-24.34-12.92-31.99-23.98-9.64-12.87-26.35-17.76-41.81-18.28m334.86 1.75c-13.63 2.72-19.34 16.73-28.37 26.32-9.96 7.18-22.02 2-33.02 3.7-12.56 3.23-20.52 14.42-30.71 21.58-10.16 5.26 5.95 9.33 9.52 12.45 6.95 1.23 6.1 12.8 13.11 12.32 3.65-9.97 14.16-18.64 25.08-19.32 18.45 5.8 37.83-8.95 40.35-27.37 1.25-10.66 9.8-17.44 16.96-24.34-2.11-4.17-9.09-3.42-12.92-5.34m-151.6 42.12c-21.34 4.35-45.13 6.73-62.5 20.61-10.08 2.33-16.22 11.64-18.71 21.11-11.35 6.43-11.55 22.36-15.16 33.98-0.67 18.66-2.35 47.01 22.57 49.03-1.83 7.31-12.9-0.87-17.98-1.99 0.08 11.72 18.78 10.05 25.24 14.7-6.32 4.85-16.1-3.04-20.96-2.06 4.14 7.58 18.44 10.12 27.45 10.54 5.33-4.51 6.05 3.85 1.9 3.09-8.54 2.99-15.67-2.42-23.33-4.34 3.21 11.12 20.59 7.52 29.06 9.83-1.06 8.49-17.59-2.94-18.35 4.72 8.05 5.78 18.39 2.34 27.42 4.89-3.73 4.12-11.4 1.18-14.34 5.26 7.07 3.49 15.33 1.54 22.9 2.01 0.95 4.9-9.2 1.53-9.48 5.8 40.26 23.78 95.2 11.24 122.69-25.73 0.69-8.03-5.13-17.08-10.84-22.18 7.58-8.67 12.26 19.64 18.89 6.06-4.87-8.11-12.03-16.42-19.87-21.9 8.89-8.62 20.1 26 23.68 7.95-3.12-9.12-12.36-16.1-21.51-19.23-2.73-0.27-3.07-4-0.24-4.43 8.13 2.88 16.31 7.31 20.79 15.02 2.61 2.18 3.84-2.66 3.83-4.64 2.55-14.36-16.71-18.39-25.6-21.76 6.81-6.29 17.88 6.05 25.74 6.81-1.26-9.84-16.48-12.22-22.74-17.6 9.39-5.04 15.62 9.16 22.7 7.92-1.11-9.03-10.57-11.58-16.74-16.39 3.56-6.21 12.2 9.16 15.52 2.84-1.12-8.48-22.2-14.84-9.7-18.71 2.45-10.02-7.52-15.27-13.16-21.4-20.38-14.6-42.9-30.3-69.17-29.81m181.81 29.84c-31.01 6.19-62.6 9.26-93.74 14.24 1.42 8.93 6.33 19.17 9.42 28.44 27.31-17.56 58.54-27.71 88.05-41.13-0.05-2.1-2.27-1.95-3.73-1.55m-397.03 13.9c-1.46 0.08-2.18 0.62-2.17 1.61 39.19 12.99 76.69 29.53 115.25 44.16-1.29-12.57 5.2-25.29 6.1-37.3-39.19-5.43-79.35-7.97-119.18-8.47m318.02 33.03c-12.85 4.92 1.27 26.36-7.23 36.6 7.18 5.12 17.74-5.85 26.68-2.89 17.4-2.07 29.03 18.46 47.04 10.96 9.25-6.59 19.9-13.99 31.91-11.1-0.14-10.66-17.08-10.86-24.47-8.72-12.04 6.55-26.05 0.2-32.36-11.02-8.37-14.77-27.03-13.4-41.57-13.83m-224.12 11.05c-0.12 5.67-8.22 5.67-12.46 4.79-23.82-3.75-35.61 24.85-58.63 23.63-15.83-3.2-31.77 6.42-42.99 15.11 20.17 12.7 43.75-4.73 65.05 1.14 23.97 3.9 39.53-24.35 64.21-13.51 10.38 1.33 0.03 9.64-6.57 5.91-28.67 19.19-57.64 39.47-85.59 58.71 4.38 2.86 13.38-1.27 18.61-2.27 18.22-8.12 37.57-13.55 55.11-23.06 11.57-0.44 19.72-12.03 31.76-10.67 3.04 10.43-17.25 1.7-13.34 13.42-9.84 5.28-14.36 15.99-18.5 26.26-10.83 9.13-30.44 11.93-32.85 28.55 0.12 5.72-6.41 8.79-6 14.36 15.93-1.04 21.92-20.54 38.24-20.49 16.68-0.76 23.19-17.83 31.44-29.54 9.06-6.53 22.52-7.99 31.18-11.52-24.4-15.13-39.68-44.73-38.28-74.43-6.77-1.95-13.43-5.35-20.39-6.39m216.52 35.12c-3.24 8.18-6.66 18.26-5.58 26.33 19.44 7.94 39.93 13.77 59.57 21.53 3.08-0.6 10.54 5.14 12.01 0.93-24.14-12.81-38.22-43.65-66-48.79m-13.02 31.93c-5.38 9.18-15.06 14.95-22.65 21.49 5.63 3.67 12.44 5.73 16.8 11.26 11.91 11.11 7.86 30.96 20.84 41.16 11.72 14.62 34.7 8.11 44.95 23.71 7.02-20.6-13.87-32.93-29.53-41.06-12.31-7.6-2.61-23.1-8.29-33.84-3.94-9.51-10.92-22.25-22.12-22.72m-143.43 19.78c-18.52 38.5-31.11 80.27-49.95 118.83 4.96 0.27 9.37-11.72 13.98-15.69 21.58-20.54 36.3-46.82 52.5-71.53 3.84-4.93 4.63-18.16 13.85-12.8 7.23 21.97-18.17 39.79-13.64 62.61 2.28 17.86 14.47 35.02 8.03 53.53-0.59 3.77-3.86 15.05 2.72 10.61 6.98-13.92 16.56-29.3 12.02-45.54-3.46-14-1.03-29.31 11.74-37.68 12.47-9.23 18.25-26.89 12.6-40.95-22.74-0.71-45.12-9.29-63.85-21.39m103.08 13.19c-8.85 2.99-19.25 3.96-27.21 6.61 9.78 27.07 21.88 53.38 26.56 82.18 7.42 7.62 6.05 22.39 12.34 28.62-6.5-38.1-1.94-77.42-9.05-115.68-0.37-1.34-1.11-2.85-2.64-1.73z"/>
 <path d="m211.52 128.09c18.07 1.63 37.67 0.86 54.38 0.84-12.45 3.7-29.25 7.76-43.47 3.61-2.73-0.13-16.85 0.75-10.91-4.45z"/>
 <path d="m270.63 140.4c2.16-1.98 6.56 1.81 3.02 3.14-19.91 10.44-42.05 2.58-63.17 3.22-1.99 0.18-4.09-1.96-1.8-3.23 20.44-3.69 42.4 7.23 61.95-3.13z"/>
 <path d="m237.32 163.05c9.51 8.97 2.59 33.25 4.69 46.75-5.5 1.34-2.5-8.96-3.91-11.88 2.52-11.39-2.94-25.05-0.78-34.87z"/>
 <path d="m282.59 169.35c9.47-2.44 19.82 2.71 24.36 11.05 0.49 4.65-5.56 2.01-6.61-0.59-9.75-10.11-25.5-6.48-35.41 1.32-2.76 4.04-14.88 1.3-9.29-3.82 9.83 0.12 17.34-7.34 26.95-7.96z"/>
 <path d="m193.58 171.39c10.08-1.65 22.15 1.73 27.45 10.65-8.73 4.26-13.32-8.41-22.28-6.04-11.46-3.45-19.36 6.01-28.39 9.68 2.98-8.9 14.5-12.99 23.22-14.29z"/>
 <path d="m273.96 183.59c9.76 0.21 27.83-2.89 30.94 9.32-4.89 2.73-28.6-13.79-19.87-0.63-0.1 8.64-12.92 3.97-13.95-2.56-4.88-3.19-7.92 5.26-12.87 4.07 0.29-7.02 10.17-8.36 15.75-10.2m3.31 6.39c-4.99 6.43 8.49 0.41 0 0z"/>
 <path d="m192.59 186.39c8.57-0.13 29.91 3.98 25.32 16.57-4.25-4.34-23.16-20.57-17.98-3.09-3.12 5-14.19 1.87-14.19-4.83-5.5-5.45-10.57 6.86-15.52 3.13 3.64-8.15 14.22-10.12 22.37-11.78m-0.38 4.66c-2.14 13.33 9.83-1.03 0 0z"/>
 <path d="m294.54 196.37c2.8-1.42 3.94 5.6 0.6 5.54-9.47 5.3-25.55 2.82-32.01-3.93 8.81-2.8 23.94 11.46 31.41-1.61z"/>
 <path d="m174.17 203.27c8.07 4.17 18.38 8.23 27.6 3.55 3.64-0.68 9.25-6.6 12.31-2-10.85 8.37-25.15 10.75-37.74 4.89-1.4-1.52-4.78-4.85-2.17-6.44z"/>
 <path d="m272.34 218.15c6.68-0.82 8.59 9.28 5.59 13.66-4.87 3.63-12.57 1.17-16.16 7.11-8.59 3.38-18.35-0.73-27.31 1.81-12.47 0.03-11.9-24.76 0.65-16.96-11.55 1.25-5.93 15.61 3.34 11.79 7.45-4.97 18.08 7.47 23.01-3.01 2.51-5.74 10.54-0.94 13.46-6.03 4.85-4.98-7.17-5.47-2.58-8.37z"/>
 <path d="m284.3 249.25c8.49 0.09 10.54 22.06-0.39 13.77-18.04-2.13-36-0.17-54.37 0.46-8.24 5.09-3.87-6.19-0.5-8.46 16.61 4.73 31.77-3.46 48.71 1.99 4.3-0.61 2.11-7.21 6.55-7.76z"/>
 <path d="m266.65 270.38c2.51-1.74 7.23 2.13 4.35 4.5-9.99 8.58-25.3 7.06-36.27 1.38-2.92-0.98-1.36-3.86 1.25-3.19 10.18 1.66 21.6 3.95 30.67-2.69z"/>
</svg>
