<?xml version="1.0" encoding="iso-8859-1"?>
<!-- Uploaded to: SVG Repo, www.svgrepo.com, Generator: SVG Repo Mixer Tools -->
<svg fill="var--(--foreground)" height="800px" width="800px" version="1.1" id="Layer_1" xmlns="http://www.w3.org/2000/svg" xmlns:xlink="http://www.w3.org/1999/xlink" 
	 viewBox="0 0 512 512" xml:space="preserve">
<g>
	<g>
		<path d="M509.534,231.29c-8.653-23.195-35.356-42.812-79.363-58.305c-20.38-7.175-39.633-11.785-50.482-14.112
			c-10.031-21.838-25.6-40.565-45.457-54.534C311.245,88.167,284.193,79.62,256,79.62c-28.194,0-55.247,8.547-78.233,24.719
			c-19.858,13.97-35.426,32.697-45.457,54.537c-10.849,2.326-30.102,6.936-50.481,14.11c-44.007,15.493-70.709,35.109-79.363,58.305
			c-3.294,8.831-4.928,22.66,5.997,38.396c19.478,28.057,69.65,46.343,97.824,54.745c2.42,0.721,4.867,1.416,7.32,2.105
			l-21.254,74.521l32.108,9.158l21.603-75.749c30.479,6.411,62.308,10.304,93.243,11.345v86.569h33.388V345.81
			c30.935-1.042,62.765-4.935,93.243-11.345l21.603,75.749l32.109-9.158l-21.254-74.521c2.452-0.688,4.899-1.382,7.32-2.105
			c28.173-8.403,78.346-26.687,97.824-54.745C514.463,253.95,512.83,240.121,509.534,231.29z M256,113.01
			c39.521,0,75.712,23.101,92.653,58.31c-2.815,2.967-7.25,6.838-13.898,10.761c-13.116,7.739-37.425,16.966-78.754,16.966
			s-65.639-9.225-78.755-16.965c-6.649-3.923-11.083-7.794-13.898-10.761C180.287,136.111,216.479,113.01,256,113.01z
			 M476.111,250.645c-11.587,16.689-48.892,32.53-79.94,41.79c-43.224,12.891-94.314,20.286-140.172,20.286
			c-99.692,0-200.183-33.368-220.112-62.075c-3.256-4.692-2.475-6.789-2.14-7.684c4.797-12.857,26.222-26.832,58.78-38.344
			c17.386-6.147,34.238-10.315,44.523-12.593c4.309,4.924,10.649,10.846,19.721,16.656c24.605,15.762,57.99,23.754,99.228,23.754
			c41.238,0,74.623-7.993,99.228-23.755c9.072-5.812,15.412-11.734,19.72-16.657c10.287,2.278,27.137,6.446,44.522,12.594
			c32.559,11.512,53.985,25.488,58.781,38.345C478.587,243.856,479.369,245.953,476.111,250.645z"/>
	</g>
</g>
<g>
	<g>
		<circle cx="129.146" cy="248.098" r="16.262"/>
	</g>
</g>
<g>
	<g>
		<circle cx="382.853" cy="248.098" r="16.262"/>
	</g>
</g>
<g>
	<g>
		<circle cx="256" cy="274.119" r="16.262"/>
	</g>
</g>
</svg>