{
  "accessors": [
    {
      "bufferView": 1,
      "componentType": 5126,
      "count": 1931,
      "max": [
        3.4867708683013916,
        1.2735973596572876,
        1.2701131105422974
      ],
      "min": [
        -3.48677134513855,
        -1.273597240447998,
        -1.2701129913330078
      ],
      "type": "VEC3"
    },
    {
      "bufferView": 1,
      "byteOffset": 23172,
      "componentType": 5126,
      "count": 1931,
      "max": [
        1.0,
        1.0,
        0.999954879283905
      ],
      "min": [
        -1.0,
        -0.9994645118713379,
        -0.999954879283905
      ],
      "type": "VEC3"
    },
    {
      "bufferView": 0,
      "componentType": 5125,
      "count": 11232,
      "type": "SCALAR"
    }
  ],
  "asset": {
    "extras": {
      "author": "Kevin-F (https://sketchfab.com/Kevin-F)",
      "license": "CC-BY-4.0 (http://creativecommons.org/licenses/by/4.0/)",
      "source": "https://sketchfab.com/3d-models/trisolaran-droplet-6c34b75fd350461499178ef0fe68eff8",
      "title": "Trisolaran droplet（三体水滴）"
    },
    "generator": "Sketchfab-14.64.0",
    "version": "2.0"
  },
  "bufferViews": [
    {
      "buffer": 0,
      "byteLength": 44928,
      "name": "floatBufferViews",
      "target": 34963
    },
    {
      "buffer": 0,
      "byteLength": 46344,
      "byteOffset": 44928,
      "byteStride": 12,
      "name": "floatBufferViews",
      "target": 34962
    }
  ],
  "buffers": [
    {
      "byteLength": 91272,
      "uri": "scene.bin"
    }
  ],
  "extensionsUsed": [
    "KHR_materials_specular"
  ],
  "materials": [
    {
      "doubleSided": true,
      "extensions": {
        "KHR_materials_specular": {
          "specularColorFactor": [
            1.0,
            1.0,
            1.0
          ],
          "specularFactor": 0.0
        }
      },
      "name": "Scene_-_Root",
      "pbrMetallicRoughness": {
        "roughnessFactor": 0.0
      }
    }
  ],
  "meshes": [
    {
      "name": "Object_0",
      "primitives": [
        {
          "attributes": {
            "NORMAL": 1,
            "POSITION": 0
          },
          "indices": 2,
          "material": 0,
          "mode": 4
        }
      ]
    }
  ],
  "nodes": [
    {
      "children": [
        1
      ],
      "matrix": [
        1.0,
        0.0,
        0.0,
        0.0,
        0.0,
        2.220446049250313e-16,
        -1.0,
        0.0,
        0.0,
        1.0,
        2.220446049250313e-16,
        0.0,
        0.0,
        0.0,
        0.0,
        1.0
      ],
      "name": "Sketchfab_model"
    },
    {
      "children": [
        2
      ],
      "name": "2fadac3125d74b39885c4f9f1f4c4852.stl.cleaner.materialmerger.gles"
    },
    {
      "mesh": 0,
      "name": "Object_2"
    }
  ],
  "scene": 0,
  "scenes": [
    {
      "name": "Sketchfab_Scene",
      "nodes": [
        0
      ]
    }
  ]
}
